# xmcd
#
# Track frame offsets: 
#        150
#        13186
#        32332
#        48173
#        61088
#        83917
#        101966
#        112444
#        132902
#        145283
#
# Disc length: 2195 seconds
#
# Revision: 0
# Processed by: cddbd v1.5.2PL0 Copyright (c) Steve Scherf et al.
# Submitted via: ExactAudioCopy v0.99pb5
#
DISCID=8908910a
DTITLE=£apka Rzepa G³uch - Januaries
DYEAR=2010
DGENRE=Blues
TTITLE0=01.Blue Bird
TTITLE1=02.Careless song
TTITLE2=03.Cherry Pie
TTITLE3=04.Civilization
TTITLE4=05.Black Bird Cider
TTITLE5=06.Lucy
TTITLE6=07.Patient Love
TTITLE7=08.Blues to remember
TTITLE8=09.Bad romance
TTITLE9=10.You are like a bookmark in my heart
EXTD=
EXTT0=
EXTT1=
EXTT2=
EXTT3=
EXTT4=
EXTT5=
EXTT6=
EXTT7=
EXTT8=
EXTT9=
PLAYORDER=
